<svg xmlns="http://www.w3.org/2000/svg" xmlns:xlink="http://www.w3.org/1999/xlink" version="1.1" x="0px" y="0px" viewBox="0 0 100 125" style="enable-background:new 0 0 100 100;" xml:space="preserve"><g><path d="M50,96c-0.1728516,0-0.3452148-0.0449219-0.5-0.1337891L10.7568359,73.4980469   c-0.3095703-0.1787109-0.5-0.5087891-0.5-0.8662109V27.8959961c0-0.3574219,0.1904297-0.6875,0.5-0.8662109L49.5,4.6606445   c0.3095703-0.1787109,0.6914062-0.1787109,1,0l38.7431641,22.3691406c0.3095703,0.1787109,0.5,0.5087891,0.5,0.8662109v44.7358398   c0,0.3574219-0.1904297,0.6875-0.5,0.8662109L50.5,95.8662109C50.3457031,95.9550781,50.1728516,96,50,96z M12.2568359,72.0546875   L50,93.8457031l37.7431641-21.7910156v-43.581543L50,6.6816406L12.2568359,28.4731445V72.0546875z"/><path d="M73.9658203,64.3964844H26.0341797c-0.3574219,0-0.6875-0.1904297-0.8662109-0.5   c-0.1782227-0.3095703-0.1782227-0.6904297,0-1l23.9658203-41.5102539c0.3574219-0.6191406,1.375-0.6191406,1.7324219,0   l23.9658203,41.5102539c0.1787109,0.3095703,0.1787109,0.6904297,0,1S74.3232422,64.3964844,73.9658203,64.3964844z    M27.7661133,62.3964844h44.4672852L50,23.8862305L27.7661133,62.3964844z"/><path d="M88.2128906,73.4794922l-14.7773438-9.2353516c-0.4150391-0.2587891-0.5810547-0.7802734-0.3925781-1.2324219   l14.2871094-34.3227539L50,22.8979492l-37.3300781,5.7910156l14.2875977,34.3227539L25.1108398,63.78125L10.3334961,28.2802734   c-0.1176758-0.2836914-0.0991211-0.6054688,0.0512695-0.8735352s0.4150391-0.4516602,0.71875-0.4990234l38.7431641-6.0097656   c0.1010742-0.015625,0.2041016-0.015625,0.3066406,0l38.7431641,6.0097656   c0.3037109,0.0473633,0.5683594,0.230957,0.71875,0.4990234s0.1689453,0.5898438,0.0507812,0.8735352L75.2148438,62.9980469   l14.0585938,8.7861328L88.2128906,73.4794922z"/><rect x="49" y="5.5268555" width="2" height="16.359375"/><path d="M50,96c-0.3129883,0-0.6079102-0.1464844-0.796875-0.3955078L25.7895508,64.7285156l-14.0029297,8.7509766   l-1.0595703-1.6953125l14.7773438-9.2353516c0.4375-0.2734375,1.0136719-0.1689453,1.3266602,0.2431641L50,93.3447266   l23.1689453-30.5527344l1.59375,1.2089844L50.796875,95.6044922C50.6074219,95.8535156,50.3125,96,50,96z"/></g></svg>