<svg xmlns="http://www.w3.org/2000/svg" width="30.256" height="33.75" viewBox="0 0 30.256 33.75">
  <g id="shield-shaded" transform="translate(-2.872 -1.125)">
    <path id="Pfad_1" data-name="Pfad 1" d="M12.247,4.48q-3.086.829-6.131,1.8a1.022,1.022,0,0,0-.709.824c-1.2,8.768,1.568,15.167,4.869,19.381A22.927,22.927,0,0,0,15.219,31.2a13.506,13.506,0,0,0,1.928,1.125,4.876,4.876,0,0,0,.634.247,1.644,1.644,0,0,0,.219.055,1.292,1.292,0,0,0,.218-.052,5.29,5.29,0,0,0,.634-.25A13.452,13.452,0,0,0,20.78,31.2a22.943,22.943,0,0,0,4.943-4.709c3.3-4.214,6.07-10.613,4.87-19.381a1.022,1.022,0,0,0-.709-.824c-1.409-.45-3.784-1.183-6.131-1.8A28.915,28.915,0,0,0,18,3.375,28.88,28.88,0,0,0,12.247,4.48Zm-.576-2.173A30.116,30.116,0,0,1,18,1.125a30.192,30.192,0,0,1,6.329,1.181q3.14.843,6.237,1.834A3.273,3.273,0,0,1,32.823,6.8c1.289,9.443-1.7,16.441-5.326,21.071a25.18,25.18,0,0,1-5.441,5.175,15.62,15.62,0,0,1-2.266,1.319A4.674,4.674,0,0,1,18,34.875a4.674,4.674,0,0,1-1.791-.506,15.543,15.543,0,0,1-2.266-1.319A25.182,25.182,0,0,1,8.5,27.875C4.876,23.245,1.888,16.247,3.177,6.8A3.272,3.272,0,0,1,5.434,4.14q3.1-.991,6.237-1.834Z" fill="rgba(208,175,163,0.8)" fill-rule="evenodd"/>
    <path id="Pfad_2" data-name="Pfad 2" d="M18,5.063c2.045,0,7.173,1.541,9.571,2.3A2.115,2.115,0,0,1,29.047,9.1C30.878,23.556,19.754,30.369,18,30.369Z" fill="rgba(208,175,163,0.8)"/>
  </g>
</svg>
